<mxfile host="app.diagrams.net" modified="2023-09-30T08:39:29.638Z" agent="Mozilla/5.0 (Windows NT 10.0; Win64; x64; rv:109.0) Gecko/20100101 Firefox/118.0" etag="wNwkhq1XYC7xy40uFgd9" version="21.8.1" type="device">
  <diagram name="Pagina-1" id="CXlOY20UPXUAhCokS_2Q">
    <mxGraphModel dx="1195" dy="622" grid="1" gridSize="10" guides="1" tooltips="1" connect="1" arrows="1" fold="1" page="1" pageScale="1" pageWidth="827" pageHeight="1169" math="0" shadow="0">
      <root>
        <mxCell id="0" />
        <mxCell id="1" parent="0" />
        <mxCell id="dcn3nJ8A0_6me1Pj84pl-1" value="" style="ellipse;whiteSpace=wrap;html=1;aspect=fixed;" vertex="1" parent="1">
          <mxGeometry x="384" y="144" width="40" height="40" as="geometry" />
        </mxCell>
        <mxCell id="dcn3nJ8A0_6me1Pj84pl-2" value="" style="ellipse;whiteSpace=wrap;html=1;aspect=fixed;" vertex="1" parent="1">
          <mxGeometry x="300" y="270" width="40" height="40" as="geometry" />
        </mxCell>
        <mxCell id="dcn3nJ8A0_6me1Pj84pl-3" value="" style="ellipse;whiteSpace=wrap;html=1;aspect=fixed;" vertex="1" parent="1">
          <mxGeometry x="384" y="270" width="40" height="40" as="geometry" />
        </mxCell>
        <mxCell id="dcn3nJ8A0_6me1Pj84pl-4" value="" style="ellipse;whiteSpace=wrap;html=1;aspect=fixed;" vertex="1" parent="1">
          <mxGeometry x="470" y="270" width="40" height="40" as="geometry" />
        </mxCell>
        <mxCell id="dcn3nJ8A0_6me1Pj84pl-10" value="" style="endArrow=none;html=1;rounded=0;entryX=0.5;entryY=1;entryDx=0;entryDy=0;exitX=0.5;exitY=0;exitDx=0;exitDy=0;" edge="1" parent="1" source="dcn3nJ8A0_6me1Pj84pl-2" target="dcn3nJ8A0_6me1Pj84pl-1">
          <mxGeometry width="50" height="50" relative="1" as="geometry">
            <mxPoint x="400" y="350" as="sourcePoint" />
            <mxPoint x="450" y="300" as="targetPoint" />
          </mxGeometry>
        </mxCell>
        <mxCell id="dcn3nJ8A0_6me1Pj84pl-11" value="" style="endArrow=none;html=1;rounded=0;entryX=0.5;entryY=1;entryDx=0;entryDy=0;exitX=0.5;exitY=0;exitDx=0;exitDy=0;" edge="1" parent="1" source="dcn3nJ8A0_6me1Pj84pl-3" target="dcn3nJ8A0_6me1Pj84pl-1">
          <mxGeometry width="50" height="50" relative="1" as="geometry">
            <mxPoint x="400" y="350" as="sourcePoint" />
            <mxPoint x="450" y="300" as="targetPoint" />
          </mxGeometry>
        </mxCell>
        <mxCell id="dcn3nJ8A0_6me1Pj84pl-12" value="" style="endArrow=none;html=1;rounded=0;entryX=0.5;entryY=0;entryDx=0;entryDy=0;exitX=0.5;exitY=1;exitDx=0;exitDy=0;" edge="1" parent="1" source="dcn3nJ8A0_6me1Pj84pl-1" target="dcn3nJ8A0_6me1Pj84pl-4">
          <mxGeometry width="50" height="50" relative="1" as="geometry">
            <mxPoint x="400" y="350" as="sourcePoint" />
            <mxPoint x="450" y="260" as="targetPoint" />
          </mxGeometry>
        </mxCell>
        <mxCell id="dcn3nJ8A0_6me1Pj84pl-13" value="" style="ellipse;whiteSpace=wrap;html=1;aspect=fixed;" vertex="1" parent="1">
          <mxGeometry x="393.5" y="370" width="40" height="40" as="geometry" />
        </mxCell>
        <mxCell id="dcn3nJ8A0_6me1Pj84pl-14" value="" style="ellipse;whiteSpace=wrap;html=1;aspect=fixed;" vertex="1" parent="1">
          <mxGeometry x="470" y="370" width="40" height="40" as="geometry" />
        </mxCell>
        <mxCell id="dcn3nJ8A0_6me1Pj84pl-15" value="" style="ellipse;whiteSpace=wrap;html=1;aspect=fixed;" vertex="1" parent="1">
          <mxGeometry x="544" y="370" width="40" height="40" as="geometry" />
        </mxCell>
        <mxCell id="dcn3nJ8A0_6me1Pj84pl-16" value="" style="endArrow=none;html=1;rounded=0;entryX=0.5;entryY=1;entryDx=0;entryDy=0;exitX=0.5;exitY=0;exitDx=0;exitDy=0;" edge="1" parent="1" source="dcn3nJ8A0_6me1Pj84pl-13" target="dcn3nJ8A0_6me1Pj84pl-4">
          <mxGeometry width="50" height="50" relative="1" as="geometry">
            <mxPoint x="525" y="480" as="sourcePoint" />
            <mxPoint x="529" y="370" as="targetPoint" />
          </mxGeometry>
        </mxCell>
        <mxCell id="dcn3nJ8A0_6me1Pj84pl-17" value="" style="endArrow=none;html=1;rounded=0;entryX=0.5;entryY=1;entryDx=0;entryDy=0;exitX=0.5;exitY=0;exitDx=0;exitDy=0;" edge="1" parent="1" source="dcn3nJ8A0_6me1Pj84pl-14" target="dcn3nJ8A0_6me1Pj84pl-4">
          <mxGeometry width="50" height="50" relative="1" as="geometry">
            <mxPoint x="525" y="480" as="sourcePoint" />
            <mxPoint x="529" y="370" as="targetPoint" />
          </mxGeometry>
        </mxCell>
        <mxCell id="dcn3nJ8A0_6me1Pj84pl-18" value="" style="endArrow=none;html=1;rounded=0;entryX=0.5;entryY=0;entryDx=0;entryDy=0;exitX=0.5;exitY=1;exitDx=0;exitDy=0;" edge="1" parent="1" target="dcn3nJ8A0_6me1Pj84pl-15" source="dcn3nJ8A0_6me1Pj84pl-4">
          <mxGeometry width="50" height="50" relative="1" as="geometry">
            <mxPoint x="529" y="370" as="sourcePoint" />
            <mxPoint x="575" y="390" as="targetPoint" />
          </mxGeometry>
        </mxCell>
        <mxCell id="dcn3nJ8A0_6me1Pj84pl-19" value="&lt;font style=&quot;font-size: 24px;&quot; face=&quot;Times New Roman&quot;&gt;Root&lt;/font&gt;" style="text;html=1;strokeColor=none;fillColor=none;align=center;verticalAlign=middle;whiteSpace=wrap;rounded=0;" vertex="1" parent="1">
          <mxGeometry x="324" y="149" width="60" height="30" as="geometry" />
        </mxCell>
        <mxCell id="dcn3nJ8A0_6me1Pj84pl-20" value="&lt;font style=&quot;font-size: 24px;&quot; face=&quot;Times New Roman&quot;&gt;Expansion&lt;/font&gt;" style="text;html=1;strokeColor=none;fillColor=none;align=center;verticalAlign=middle;whiteSpace=wrap;rounded=0;" vertex="1" parent="1">
          <mxGeometry x="524" y="196.6" width="110" height="40" as="geometry" />
        </mxCell>
        <mxCell id="dcn3nJ8A0_6me1Pj84pl-22" value="" style="endArrow=none;html=1;rounded=0;" edge="1" parent="1">
          <mxGeometry width="50" height="50" relative="1" as="geometry">
            <mxPoint x="520" y="269.6" as="sourcePoint" />
            <mxPoint x="520" y="184" as="targetPoint" />
          </mxGeometry>
        </mxCell>
        <mxCell id="dcn3nJ8A0_6me1Pj84pl-23" value="" style="endArrow=none;html=1;rounded=0;" edge="1" parent="1">
          <mxGeometry width="50" height="50" relative="1" as="geometry">
            <mxPoint x="510" y="269.6" as="sourcePoint" />
            <mxPoint x="530" y="269.6" as="targetPoint" />
          </mxGeometry>
        </mxCell>
        <mxCell id="dcn3nJ8A0_6me1Pj84pl-24" value="" style="endArrow=none;html=1;rounded=0;" edge="1" parent="1">
          <mxGeometry width="50" height="50" relative="1" as="geometry">
            <mxPoint x="510" y="184" as="sourcePoint" />
            <mxPoint x="530" y="184" as="targetPoint" />
          </mxGeometry>
        </mxCell>
        <mxCell id="dcn3nJ8A0_6me1Pj84pl-25" value="" style="endArrow=classic;html=1;rounded=0;" edge="1" parent="1">
          <mxGeometry width="50" height="50" relative="1" as="geometry">
            <mxPoint x="428" y="193" as="sourcePoint" />
            <mxPoint x="494" y="258" as="targetPoint" />
          </mxGeometry>
        </mxCell>
        <mxCell id="dcn3nJ8A0_6me1Pj84pl-26" value="&lt;font style=&quot;font-size: 24px;&quot; face=&quot;Times New Roman&quot;&gt;Strategy&lt;/font&gt;" style="text;html=1;strokeColor=none;fillColor=none;align=center;verticalAlign=middle;whiteSpace=wrap;rounded=0;rotation=43.5;" vertex="1" parent="1">
          <mxGeometry x="414" y="197" width="110" height="28.9" as="geometry" />
        </mxCell>
      </root>
    </mxGraphModel>
  </diagram>
</mxfile>
